<!DOCTYPE svg PUBLIC "-//W3C//DTD SVG 1.1//EN" "http://www.w3.org/Graphics/SVG/1.1/DTD/svg11.dtd">
<!-- Uploaded to: SVG Repo, www.svgrepo.com, Transformed by: SVG Repo Mixer Tools -->
<svg version="1.1" id="Layer_1" xmlns="http://www.w3.org/2000/svg" xmlns:xlink="http://www.w3.org/1999/xlink" viewBox="0 0 512 512" xml:space="preserve" width="800px" height="800px" fill="#000000">
<g id="SVGRepo_bgCarrier" stroke-width="0"/>
<g id="SVGRepo_tracerCarrier" stroke-linecap="round" stroke-linejoin="round"/>
<g id="SVGRepo_iconCarrier"> <path style="fill:#FFFFFF;" d="M256,504C119.248,504,8,392.752,8,256C8,119.256,119.248,8,256,8s248,111.256,248,248 C504,392.752,392.752,504,256,504z"/> <path style="fill:#ff6c29;" d="M256,16c132.336,0,240,107.664,240,240S388.336,496,256,496S16,388.336,16,256S123.664,16,256,16 M256,0C114.616,0,0,114.616,0,256s114.616,256,256,256s256-114.616,256-256S397.384,0,256,0L256,0z"/> <rect x="116.32" y="291.768" style="fill:#1f4077;" width="37.248" height="73.192"/> <rect x="176.88" y="249.92" width="37.248" height="115.024"/> <rect x="237.368" y="202.888" style="fill:#1f4077;" width="37.248" height="162.064"/> <rect x="297.92" y="155.832" width="37.248" height="209.12"/> <rect x="358.44" y="124.464" style="fill:#1f4077;" width="37.248" height="240.48"/> </g>
</svg>